Coordinates
version=1
nRows=13
nColumns=40
inDegrees=yes

Units are S.I. units (second, meters, Newtons, ...)
Angles are in degrees.

endheader
time	pelvis_tilt	pelvis_list	pelvis_rotation	pelvis_tx	pelvis_ty	pelvis_tz	hip_flexion_r	hip_adduction_r	hip_rotation_r	knee_angle_r	knee_angle_r_beta	ankle_angle_r	subtalar_angle_r	mtp_angle_r	hip_flexion_l	hip_adduction_l	hip_rotation_l	knee_angle_l	knee_angle_l_beta	ankle_angle_l	subtalar_angle_l	mtp_angle_l	lumbar_extension	lumbar_bending	lumbar_rotation	arm_flex_r	arm_add_r	arm_rot_r	elbow_flex_r	pro_sup_r	wrist_flex_r	wrist_dev_r	arm_flex_l	arm_add_l	arm_rot_l	elbow_flex_l	pro_sup_l	wrist_flex_l	wrist_dev_l
     55.18000000	     -5.58499854	     -6.50601572	      4.57459979	      1.05858840	      0.91827912	      0.49464183	      0.26664416	      5.32845514	    -15.21178721	      9.34906009	      9.34906009	     16.86929539	      4.81148189	     -3.02432331	     33.79632975	     -7.79546696	     -1.01987941	     20.82612655	     20.82612655	      3.79260774	     -9.62144642	      8.45298829	    -10.02748169	      7.84363001	      2.69465043	     51.57143371	    -17.18411821	      5.67045082	     99.35346810	     44.01258016	      0.00000000	      0.00000000	    -17.20796313	     -9.73802674	     15.93159563	     32.36996561	     44.50997582	      0.00000000	      0.00000000
     55.19200000	     -5.61973246	     -6.48151171	      4.34740026	      1.06012485	      0.91692060	      0.49289183	     -0.07601079	      5.12341841	    -14.94832333	      9.89844732	      9.89844732	     17.87557129	      4.89208897	     -1.81519825	     33.19383768	     -7.67833552	     -0.83598189	     21.27113500	     21.27113500	      2.36233042	    -10.78788510	      6.17885255	     -9.80544040	      7.70769247	      3.02730135	     51.35516793	    -17.65230905	      5.53253593	    101.66093871	     44.02098808	      0.00000000	      0.00000000	    -17.77937414	    -10.00182706	     16.81061219	     33.17156852	     44.43395656	      0.00000000	      0.00000000
     55.20400000	     -5.64629452	     -6.38268259	      4.14665048	      1.06160777	      0.91585743	      0.49095667	     -0.57521989	      4.86823054	    -14.67836638	     10.09477025	     10.09477025	     18.29054108	      4.90434983	     -1.92793353	     32.69371880	     -7.53960122	     -0.86499933	     21.93469996	     21.93469996	      2.14262999	    -11.04121564	      6.13949686	     -9.48319283	      7.58010570	      3.00990662	     51.42814867	    -17.59154227	      5.52942400	    101.92742821	     44.01537999	      0.00000000	      0.00000000	    -18.12728856	     -9.92613615	     16.87318059	     33.06044008	     44.42268387	      0.00000000	      0.00000000
     55.21600000	     -5.65228988	     -6.31019097	      3.95324192	      1.06278451	      0.91476636	      0.48899242	     -0.68320610	      4.52803229	    -14.44305460	     11.06820158	     11.06820158	     18.83170664	      4.63396289	     -1.90834618	     32.46633041	     -7.35625380	     -0.53575072	     23.00564540	     23.00564540	      2.00442024	    -11.99025999	      5.77181953	     -9.40124143	      7.40297888	      2.68157869	     51.41836277	    -17.26384070	      5.63977370	    103.60172371	     43.97503456	      0.00000000	      0.00000000	    -18.35393442	     -9.84763651	     17.06580403	     33.05888870	     44.40570360	      0.00000000	      0.00000000
     55.22800000	     -5.68936528	     -6.12527099	      3.76663446	      1.06392438	      0.91418838	      0.48676535	     -0.80674391	      4.04982905	    -14.24412626	     11.93297410	     11.93297410	     19.24774619	      4.47686063	     -1.64461075	     32.11759586	     -7.03545064	     -0.25600314	     23.71443185	     23.71443185	      1.93956803	    -12.75812524	      5.43586948	     -9.27926746	      7.11697213	      2.85794376	     50.84900404	    -17.58653076	      5.49954132	    105.14929044	     43.95501454	      0.00000000	      0.00000000	    -18.25673014	     -9.88293710	     17.25641677	     33.11080854	     44.40072240	      0.00000000	      0.00000000
     55.24000000	     -5.69762419	     -5.95815608	      3.62898194	      1.06488360	      0.91396182	      0.48437627	     -0.89163921	      3.56042878	    -14.10838752	     12.88757406	     12.88757406	     19.55884394	      4.35557273	     -1.51983068	     31.81457951	     -6.73469988	     -0.07141127	     24.43458627	     24.43458627	      2.17258009	    -13.34634427	      5.23864658	     -9.20309640	      6.91446557	      2.93046419	     50.20895723	    -17.80606910	      5.26778734	    106.35262146	     43.94745688	      0.00000000	      0.00000000	    -17.91115688	     -9.88874586	     17.46281141	     32.98756045	     44.39679052	      0.00000000	      0.00000000
     55.25200000	     -5.55998425	     -5.84081447	      3.53964575	      1.06584634	      0.91438759	      0.48180457	     -1.28092392	      3.17062135	    -14.00583998	     13.50265978	     13.50265978	     19.54866798	      4.25153313	     -1.56451531	     31.34530314	     -6.49139337	      0.07378388	     25.05718485	     25.05718485	      2.63952823	    -13.69017771	      5.00985580	     -9.29070262	      6.77096858	      2.71941093	     49.63139222	    -17.75078308	      5.32100778	    106.52794533	     43.94178388	      0.00000000	      0.00000000	    -17.54166214	     -9.83389246	     17.49312844	     33.02575002	     44.40107809	      0.00000000	      0.00000000
     55.26400000	     -5.68828197	     -5.60959173	      3.39032949	      1.06628623	      0.91463601	      0.47905486	     -0.75970468	      2.43415210	    -13.97357387	     15.29314973	     15.29314973	     19.72572375	      3.97886819	     -1.92296977	     31.15777414	     -6.09938040	      0.15761764	     25.58926326	     25.58926326	      3.13829602	    -14.20535176	      5.07448715	     -9.19155846	      6.54793518	      2.69614265	     48.75849620	    -17.86485002	      5.09826686	    107.56536540	     43.92758598	      0.00000000	      0.00000000	    -16.94005434	     -9.82865276	     17.56045220	     32.80521792	     44.41172381	      0.00000000	      0.00000000
     55.27600000	     -5.69414460	     -5.43862432	      3.31253409	      1.06677934	      0.91555950	      0.47610525	     -0.52023181	      1.77741143	    -14.12885147	     16.74288491	     16.74288491	     19.52709987	      4.00320204	     -2.46872296	     30.78169993	     -5.72418999	      0.31631442	     25.98364456	     25.98364456	      4.03481640	    -14.59157257	      6.12972246	     -9.24142003	      6.39720953	      3.38103112	     46.94417763	    -18.70229215	      3.95222117	    109.39056605	     43.95498054	      0.00000000	      0.00000000	    -15.48321759	     -9.81971197	     17.85809141	     31.82626062	     44.43273085	      0.00000000	      0.00000000
     55.28800000	     -5.68806253	     -5.26914582	      3.22947492	      1.06719735	      0.91666119	      0.47308412	     -0.11489222	      1.09505362	    -14.06081378	     18.49969993	     18.49969993	     19.26332072	      3.66723144	     -2.98797895	     30.30286800	     -5.41629711	      0.24568174	     26.18449820	     26.18449820	      4.65466590	    -14.65952698	      6.11203802	     -9.27169756	      6.27398021	      3.19038705	     45.82481644	    -18.61817541	      3.96203049	    109.34245634	     43.96475596	      0.00000000	      0.00000000	    -14.71071429	     -9.78206659	     17.91013485	     31.83511260	     44.44641974	      0.00000000	      0.00000000
     55.30000000	     -5.75795059	     -5.13834700	      3.13323940	      1.06743892	      0.91779584	      0.46998202	      0.56962966	      0.37160854	    -14.07200838	     20.57207039	     20.57207039	     18.73588457	      3.36365910	     -4.19765453	     29.85887619	     -5.12164856	      0.15778486	     26.26448968	     26.26448968	      5.31331839	    -14.83103202	      6.47681516	     -9.24902509	      6.25046083	      3.22327919	     44.31394627	    -18.75039988	      3.52089877	    109.42576861	     43.99520867	      0.00000000	      0.00000000	    -13.64431098	     -9.80000772	     17.91165117	     31.66399823	     44.48002864	      0.00000000	      0.00000000
     55.31200000	     -5.74146588	     -4.96355988	      3.01698209	      1.06766311	      0.91921591	      0.46690276	      1.27345721	     -0.40715909	    -13.91633538	     22.80606209	     22.80606209	     18.07110808	      2.90459988	     -5.23994533	     29.19270809	     -4.82751823	     -0.06298427	     26.13241280	     26.13241280	      5.87854213	    -14.72847550	      6.56053269	     -9.29417744	      6.16144684	      3.13408640	     42.76730858	    -18.73624498	      3.36829620	    109.12943948	     44.01650056	      0.00000000	      0.00000000	    -12.65150872	     -9.82380981	     17.84246623	     31.73932628	     44.51394913	      0.00000000	      0.00000000
     55.32400000	     -5.71473797	     -4.82108290	      2.86751344	      1.06789551	      0.92062626	      0.46389371	      2.16137677	     -1.19121318	    -13.67065443	     25.36448229	     25.36448229	     17.23195337	      2.34298176	     -6.41565227	     28.48096943	     -4.59288045	     -0.37369548	     25.95099063	     25.95099063	      6.38952914	    -14.61830164	      6.58013921	     -9.34813069	      6.09829354	      3.06183602	     41.02996225	    -18.67589765	      3.21417924	    108.57442460	     44.04187325	      0.00000000	      0.00000000	    -11.59595209	     -9.92272806	     17.71319900	     31.91412302	     44.55442680	      0.00000000	      0.00000000
